<?xml version="1.0" encoding="iso-8859-1"?>
<!-- Generator: Adobe Illustrator 16.0.0, SVG Export Plug-In . SVG Version: 6.00 Build 0)  -->
<!DOCTYPE svg PUBLIC "-//W3C//DTD SVG 1.1//EN" "http://www.w3.org/Graphics/SVG/1.1/DTD/svg11.dtd">
<svg version="1.1" id="Capa_1" xmlns="http://www.w3.org/2000/svg" xmlns:xlink="http://www.w3.org/1999/xlink" x="0px" y="0px"
	 width="427.098px" height="427.097px" viewBox="0 0 427.098 427.097" style="enable-background:new 0 0 427.098 427.097;"
	 xml:space="preserve">
<g>
	<g>
		<polygon points="236.51,207.297 213.548,116.803 190.59,207.297 213.548,207.297 		"/>
		<path d="M60.843,187.738c0,78.88,136.327,184.162,152.705,196.521c16.379-12.358,152.711-117.661,152.711-196.521V35.032H60.843
			V187.738z M154.854,268.771h14.588l40.648-160.221h-13.839c-1.486,0-2.688-1.203-2.688-2.688c0-1.473,1.202-2.688,2.688-2.688
			h34.599c1.485,0,2.688,1.215,2.688,2.688c0,1.485-1.202,2.688-2.688,2.688h-13.839l40.657,160.221h14.589
			c1.486,0,2.688,1.207,2.688,2.688s-1.202,2.688-2.688,2.688h-34.604c-1.48,0-2.688-1.207-2.688-2.688s1.207-2.688,2.688-2.688
			h14.455l-14.226-56.106h-24.336h-24.323l-14.233,56.106h14.459c1.483,0,2.688,1.207,2.688,2.688s-1.205,2.688-2.688,2.688h-34.602
			c-1.483,0-2.688-1.207-2.688-2.688S153.366,268.771,154.854,268.771z"/>
		<path d="M398.602,0H28.496c-1.485,0-2.688,1.205-2.688,2.688v185.05c0,99.321,151.343,213.286,168.597,225.948l17.552,12.882
			c0.473,0.335,1.03,0.529,1.59,0.529c0.558,0,1.119-0.179,1.592-0.529l17.548-12.882
			c17.261-12.662,168.602-126.638,168.602-225.948V2.688C401.289,1.205,400.087,0,398.602,0z M371.635,187.738
			c0,36.327-26.405,81.41-78.474,134.01c-38.552,38.951-77.629,67.754-78.032,68.042c-0.473,0.336-1.035,0.515-1.592,0.515
			c-0.56,0-1.117-0.163-1.59-0.515c-0.394-0.293-39.468-29.091-78.02-68.031c-52.065-52.601-78.47-97.693-78.47-134.015V32.345
			c0-1.478,1.204-2.688,2.688-2.688h310.792c1.476,0,2.688,1.21,2.688,2.688L371.635,187.738L371.635,187.738z"/>
	</g>
</g>
<g>
</g>
<g>
</g>
<g>
</g>
<g>
</g>
<g>
</g>
<g>
</g>
<g>
</g>
<g>
</g>
<g>
</g>
<g>
</g>
<g>
</g>
<g>
</g>
<g>
</g>
<g>
</g>
<g>
</g>
</svg>
